<?xml version="1.0" standalone="no"?>
 <!DOCTYPE svg PUBLIC "-//W3C//DTD SVG 1.1//EN" 
 "http://www.w3.org/Graphics/SVG/1.1/DTD/svg11.dtd"> 
<svg
  xmlns:svg="http://www.w3.org/2000/svg"
  xmlns="http://www.w3.org/2000/svg"
  xmlns:xlink="http://www.w3.org/1999/xlink"
  version="1.1"
  width="29.700220cm" height="21.000720cm" viewBox="0 0 297002200 210007200">
<title>SVG Picture created as the_moon-Edge_Cuts.svg date 2022/01/24 11:25:54 </title>
  <desc>Picture generated by PCBNEW </desc>
<g style="fill:#000000; fill-opacity:1.000000;stroke:#000000; stroke-opacity:1.000000;
stroke-linecap:round; stroke-linejoin:round;"
 transform="translate(0 0) scale(1 1)">
</g>
<g style="fill:#000000; fill-opacity:0.0; 
stroke:#000000; stroke-width:0.000000; stroke-opacity:1; 
stroke-linecap:round; stroke-linejoin:round;">
</g>
<g style="fill:#000000; fill-opacity:0.0; 
stroke:#000000; stroke-width:200000.000000; stroke-opacity:1; 
stroke-linecap:round; stroke-linejoin:round;">
<path d="M171890944.294773 97551839.877901 A2000002.000000 2000002.000000 0.0 0 0 170043185.000000 96317207.000000" />
<path d="M113584731 63520234
L114341563 63903828
" />
<path d="M128009564 127474649
L127614615 124889812
" />
<path d="M195745732 62863578
L195953797 62042341
" />
<path d="M212641429 119109231
L213714585 117374339
" />
<path d="M127614615 124889812
L127609611 122243710
" />
<path d="M96953543 120987425
L97434230 123023047
" />
<path d="M128023200 119576608
L128888763 116914540
" />
<path d="M211233216 125229783
L211365770 123023047
" />
<path d="M197509042 143720645
L212768513 138909352
" />
<path d="M176875703 67758019
L167950035 68907743
" />
<path d="M45628819.970671 76399300.222779 A2000000.000000 2000000.000000 0.0 0 0 43384878.222779 78121138.029329" />
<path d="M180229337 123615956
L180160606 127234090
" />
<path d="M265415121.777221 78121138.029329 A2000000.000000 2000000.000000 0.0 0 0 263171180.029329 76399300.222779" />
<path d="M242957411.961949 77393529.011997 A1999999.000000 1999999.000000 0.0 0 0 245125897.952517 78775006.639330" />
<path d="M213345793 56523900
L212005952 53289236
" />
<path d="M196458511.996821 57564411.992325 A2000000.000000 2000000.000000 0.0 0 0 195376119.992325 60177538.003179" />
<path d="M125483131.088366 151108622.830250 A2000000.000000 2000000.000000 0.0 0 0 128180649.830250 150258097.911634" />
<path d="M194460750 63907908
L195216436 63524936
" />
<path d="M128783509 129945868
L128009564 127474649
" />
<path d="M253728843 111935792
L267609071 110108426
" />
<path d="M134404638 137212594
L134450601 137932127
" />
<path d="M112998989 61203315
L112847918 62037071
" />
<path d="M43384878 78121138
L39469092 107864483
" />
<path d="M179800862 119878460
L180229337 123615956
" />
<path d="M131946413 67755947
L123109199 66031309
" />
<path d="M180619350.169750 150258097.911634 A2000000.000000 2000000.000000 0.0 0 0 183316868.911634 151108622.830250" />
<path d="M41190929 110108426
L55071157 111935792
" />
<path d="M211365770 123023047
L211846457 120987425
" />
<path d="M145370929 69213188
L140870311 68907151
" />
<path d="M128888763 116914540
L136909056 97551840
" />
<path d="M63674102 78775007
L45628820 76399300
" />
<path d="M180160606 127234090
L179888006 128956818
" />
<path d="M163441913 69213341
L158900000 69317207
" />
<path d="M99408642.149626 52197133.638772 A2000000.000000 2000000.000000 0.0 0 0 96795517.345878 53279525.143268" />
<path d="M97322194 127619672
L96680052 130201346
" />
<path d="M176658804 134882549
L175205433 136049843
" />
<path d="M232936209 52261353
L215794964 57665967
" />
<path d="M177943834 112514312
L179008431 116143891
" />
<path d="M75787266 105712211
L80356909 107349485
" />
<path d="M212005321.731594 53289766.111096 A1999732.000000 1999732.000000 0.0 0 0 209392825.964832 52206844.915035" />
<path d="M113055573 62858453
L113584731 63520234
" />
<path d="M97434230 123023047
L97566784 125229783
" />
<path d="M149900000 69317207
L145370929 69213188
" />
<path d="M134450601 137932127
L134238401 138621267
" />
<path d="M63674102.011176 78775006.915112 A2000001.000000 2000001.000000 0.0 0 0 65842587.552756 77393528.858984" />
<path d="M112847918 62037071
L113055573 62858453
" />
<path d="M96031487 138909352
L111290958 143720645
" />
<path d="M112998989 61203315
L113423880 60177538
" />
<path d="M113423880.007675 60177538.003179 A2000000.000000 2000000.000000 0.0 0 0 112341488.003179 57564411.992325" />
<path d="M96794048 53289236
L95454207 56523900
" />
<path d="M220087279 111615165
L224103755 109314895
" />
<path d="M96158571 119109231
L96953543 120987425
" />
<path d="M211846457 120987425
L212641429 119109231
" />
<path d="M250490749 102662622
L251484901 110213955
" />
<path d="M138756815.000000 96317207.000000 A2000002.000000 2000002.000000 0.0 0 0 136909055.705227 97551839.877901" />
<path d="M212119948 130201346
L211477806 127619672
" />
<path d="M177833731 133576950
L176658804 134882549
" />
<path d="M195953797 62042341
L195802762 61207543
" />
<path d="M194460750 63907908
L185703761 66034942
" />
<path d="M174395929 137215159
L174693846 136558331
" />
<path d="M57315099 110213955
L58309251 102662622
" />
<path d="M251484901.352188 110213954.953633 A2000000.000000 2000000.000000 0.0 0 0 253728842.970671 111935791.777221" />
<path d="M171890944 97551840
L176658428 109061564
" />
<path d="M60893552.648703 101016242.114172 A2000000.000000 2000000.000000 0.0 0 0 58309251.481598 102662622.063404" />
<path d="M92248952 114280944
L93770525 115769061
" />
<path d="M133596174 136048818
L134106912 136556679
" />
<path d="M96680052 130201346
L94725464 136400506
" />
<path d="M212768513.159691 138909352.506473 A2000002.000000 2000002.000000 0.0 0 0 214074536.170474 136400505.946250" />
<path d="M228443091 107349485
L233012734 105712211
" />
<path d="M111290958 143720645
L125483131 151108623
" />
<path d="M134106912 136556679
L134404638 137212594
" />
<path d="M176658428 109061564
L177943834 112514312
" />
<path d="M112341488 57564412
L99407174 52206844
" />
<path d="M183316869 151108623
L197509042 143720645
" />
<path d="M88712721 111615165
L92248952 114280944
" />
<path d="M216551048 114280944
L220087279 111615165
" />
<path d="M167950035 68907743
L163441913 69213341
" />
<path d="M93770525 115769061
L95085415 117374339
" />
<path d="M233012734 105712211
L247906447 101016241
" />
<path d="M75863791.025915 52261352.917808 A2000000.000000 2000000.000000 0.0 0 0 73354945.917808 53567375.974085" />
<path d="M138756815 96317207
L170043185 96317207
" />
<path d="M174562415 138622834
L180619350 150258098
" />
<path d="M97566784 125229783
L97322194 127619672
" />
<path d="M174693846 136558331
L175205433 136049843
" />
<path d="M95085415 117374339
L96158571 119109231
" />
<path d="M84696245 109314895
L88712721 111615165
" />
<path d="M179888006 128956818
L179425446 130599191
" />
<path d="M178748611 132144477
L177833731 133576950
" />
<path d="M195216436 63524936
L195745732 62863578
" />
<path d="M128180650 150258098
L134238401 138621267
" />
<path d="M213345792.992325 56523900.003179 A2000000.000000 2000000.000000 0.0 0 0 215794963.935491 57665966.795404" />
<path d="M158900000 69317207
L149900000 69317207
" />
<path d="M214074536 136400506
L212119948 130201346
" />
<path d="M179425446 130599191
L178748611 132144477
" />
<path d="M73354946 53567376
L65842588 77393529
" />
<path d="M174350283 137934272
L174395929 137215159
" />
<path d="M263171180 76399300
L245125898 78775007
" />
<path d="M133596174 136048818
L131537874 134296809
" />
<path d="M39469092.352188 107864483.046367 A2000000.000000 2000000.000000 0.0 0 0 41190929.046367 110108425.647812" />
<path d="M93005036.064509 57665966.795404 A2000000.000000 2000000.000000 0.0 0 0 95454207.007675 56523900.003179" />
<path d="M80356909 107349485
L84696245 109314895
" />
<path d="M235445054.082192 53567375.974085 A2000000.000000 2000000.000000 0.0 0 0 232936208.974085 52261352.917808" />
<path d="M195376120 60177538
L195802762 61207543
" />
<path d="M267609070.953633 110108425.647812 A2000000.000000 2000000.000000 0.0 0 0 269330907.647812 107864483.046367" />
<path d="M131537874 134296809
L129948529 132241923
" />
<path d="M94725464.783243 136400506.246955 A2000001.000000 2000001.000000 0.0 0 0 96031487.141016 138909351.552756" />
<path d="M269330908 107864483
L265415122 78121138
" />
<path d="M93005036 57665967
L75863791 52261353
" />
<path d="M215029475 115769061
L216551048 114280944
" />
<path d="M209392826 52206844
L196458512 57564412
" />
<path d="M185703761 66034942
L176875703 67758019
" />
<path d="M129948529 132241923
L128783509 129945868
" />
<path d="M211477806 127619672
L211233216 125229783
" />
<path d="M127609611 122243710
L128023200 119576608
" />
<path d="M179008431 116143891
L179800862 119878460
" />
<path d="M213714585 117374339
L215029475 115769061
" />
<path d="M123109199 66031309
L114341563 63903828
" />
<path d="M55071157.029329 111935791.777221 A2000000.000000 2000000.000000 0.0 0 0 57315098.647812 110213954.953633" />
<path d="M224103755 109314895
L228443091 107349485
" />
<path d="M60893553 101016241
L75787266 105712211
" />
<path d="M242957412 77393529
L235445054 53567376
" />
<path d="M140870311 68907151
L131946413 67755947
" />
<path d="M174562415 138622834
L174350283 137934272
" />
<path d="M250490749.509847 102662621.932877 A2000001.000000 2000001.000000 0.0 0 0 247906447.050591 101016241.160455" />
</g>
<g style="fill:#000000; fill-opacity:0.0; 
stroke:#000000; stroke-width:120000.000000; stroke-opacity:1; 
stroke-linecap:round; stroke-linejoin:round;">
<path d="M151769427 76574687
L150753427 76574687
" />
<path d="M152277427 79622687
L152277427 77082687
" />
<path d="M150753427 80130687
L151769427 80130687
" />
</g>
<g style="fill:#000000; fill-opacity:0.0; 
stroke:#000000; stroke-width:100000.000000; stroke-opacity:1; 
stroke-linecap:round; stroke-linejoin:round;">
<path d="M150245427 77082687
L150245427 79622687
" />
</g>
<g style="fill:#000000; fill-opacity:0.0; 
stroke:#000000; stroke-width:120000.000000; stroke-opacity:1; 
stroke-linecap:round; stroke-linejoin:round;">
<path d="M150245427.000001 79622687.000000 A508001.000000 508001.000000 0.0 0 0 150753427.000000 80130686.999999" />
<path d="M152277426.999999 77082687.000000 A508001.000000 508001.000000 0.0 0 0 151769427.000000 76574687.000001" />
<path d="M150753427.000000 76574687.000001 A508001.000000 508001.000000 0.0 0 0 150245427.000001 77082687.000000" />
<path d="M151769427.000000 80130686.999999 A508001.000000 508001.000000 0.0 0 0 152277426.999999 79622687.000000" />
<g >
</g>
<g >
</g>
<g >
</g>
<g >
</g>
<g >
</g>
<g >
</g>
<g >
</g>
<g >
</g>
<g >
</g>
<g >
</g>
<g >
</g>
<g >
</g>
<g >
</g>
<g >
</g>
<g >
</g>
<g >
</g>
<g >
</g>
<g >
</g>
<g >
</g>
<g >
</g>
<g >
</g>
<g >
</g>
<g >
</g>
<g >
</g>
<g >
</g>
<g >
</g>
<g >
</g>
<g >
</g>
<g >
</g>
<g >
</g>
<g >
</g>
<g >
</g>
<g >
</g>
<g >
</g>
<g >
</g>
<g >
</g>
<g >
</g>
<g >
</g>
<g >
</g>
<g >
</g>
<g >
</g>
<g >
</g>
<g >
</g>
<g >
</g>
<g >
</g>
<g >
</g>
<g >
</g>
<g >
</g>
<g >
</g>
<g >
</g>
<g >
</g>
<g >
</g>
<g >
</g>
<g >
</g>
<g >
</g>
<g >
</g>
<g >
</g>
<g >
</g>
<g >
</g>
<g >
</g>
<g >
</g>
<g >
</g>
<g >
</g>
<g >
</g>
<g >
</g>
<g >
</g>
<g >
</g>
<g >
</g>
<g >
</g>
<g >
</g>
<g >
</g>
<g >
</g>
</g> 
</svg>
