<?xml version="1.0" standalone="no"?>
 <!DOCTYPE svg PUBLIC "-//W3C//DTD SVG 1.1//EN" 
 "http://www.w3.org/Graphics/SVG/1.1/DTD/svg11.dtd"> 
<svg
  xmlns:svg="http://www.w3.org/2000/svg"
  xmlns="http://www.w3.org/2000/svg"
  xmlns:xlink="http://www.w3.org/1999/xlink"
  version="1.1"
  width="29.700220cm" height="21.000720cm" viewBox="0 0 297002200 210007200">
<title>SVG Picture created as the_moon-B_Silkscreen.svg date 2022/01/24 11:25:54 </title>
  <desc>Picture generated by PCBNEW </desc>
<g style="fill:#000000; fill-opacity:1.000000;stroke:#000000; stroke-opacity:1.000000;
stroke-linecap:round; stroke-linejoin:round;"
 transform="translate(0 0) scale(1 1)">
</g>
<g style="fill:#000000; fill-opacity:0.0; 
stroke:#000000; stroke-width:0.000000; stroke-opacity:1; 
stroke-linecap:round; stroke-linejoin:round;">
</g>
<g style="fill:#000000; fill-opacity:0.0; 
stroke:#000000; stroke-width:150000.000000; stroke-opacity:1; 
stroke-linecap:round; stroke-linejoin:round;">
<text x="147324427.000000" y="79868687.000000"
transform="scale(-1 1) translate(-294648854.000000 0)"
textLength="3519286.000000" font-size="1333333.000000" lengthAdjust="spacingAndGlyphs"
text-anchor="middle" opacity="0">Bat-</text>
<g class="stroked-text"><desc>Bat-</desc>
<path d="M148610141 79297258
L148467284 79344877
L148419665 79392496
L148372046 79487734
L148372046 79630591
L148419665 79725829
L148467284 79773448
L148562522 79821067
L148943474 79821067
L148943474 78821067
L148610141 78821067
L148514903 78868687
L148467284 78916306
L148419665 79011544
L148419665 79106782
L148467284 79202020
L148514903 79249639
L148610141 79297258
L148943474 79297258
" />
<path d="M147514903 79821067
L147514903 79297258
L147562522 79202020
L147657760 79154401
L147848236 79154401
L147943474 79202020
" />
<path d="M147514903 79773448
L147610141 79821067
L147848236 79821067
L147943474 79773448
L147991093 79678210
L147991093 79582972
L147943474 79487734
L147848236 79440115
L147610141 79440115
L147514903 79392496
" />
<path d="M147181569 79154401
L146800617 79154401
" />
<path d="M147038712 78821067
L147038712 79678210
L146991093 79773448
L146895855 79821067
L146800617 79821067
" />
<path d="M146467284 79440115
L145705379 79440115
" />
</g><text x="155706427.000000" y="75654687.000000"
transform="scale(-1 1) translate(-311412854.000000 0)"
textLength="1938333.000000" font-size="933333.000000" lengthAdjust="spacingAndGlyphs"
text-anchor="middle" opacity="0">GND</text>
<g class="stroked-text"><desc>GND</desc>
<path d="M156239760 74954687
L156306427 74921353
L156406427 74921353
L156506427 74954687
L156573093 75021353
L156606427 75088020
L156639760 75221353
L156639760 75321353
L156606427 75454687
L156573093 75521353
L156506427 75588020
L156406427 75621353
L156339760 75621353
L156239760 75588020
L156206427 75554687
L156206427 75321353
L156339760 75321353
" />
<path d="M155906427 75621353
L155906427 74921353
L155506427 75621353
L155506427 74921353
" />
<path d="M155173093 75621353
L155173093 74921353
L155006427 74921353
L154906427 74954687
L154839760 75021353
L154806427 75088020
L154773093 75221353
L154773093 75321353
L154806427 75454687
L154839760 75521353
L154906427 75588020
L155006427 75621353
L155173093 75621353
" />
</g><text x="155706427.000000" y="73114687.000000"
transform="scale(-1 1) translate(-311412854.000000 0)"
textLength="1771667.000000" font-size="933333.000000" lengthAdjust="spacingAndGlyphs"
text-anchor="middle" opacity="0">CLK</text>
<g class="stroked-text"><desc>CLK</desc>
<path d="M156123093 73014687
L156156427 73048020
L156256427 73081353
L156323093 73081353
L156423093 73048020
L156489760 72981353
L156523093 72914687
L156556427 72781353
L156556427 72681353
L156523093 72548020
L156489760 72481353
L156423093 72414687
L156323093 72381353
L156256427 72381353
L156156427 72414687
L156123093 72448020
" />
<path d="M155489760 73081353
L155823093 73081353
L155823093 72381353
" />
<path d="M155256427 73081353
L155256427 72381353
" />
<path d="M154856427 73081353
L155156427 72681353
" />
<path d="M154856427 72381353
L155256427 72781353
" />
</g><text x="147324427.000000" y="77968687.000000"
transform="scale(-1 1) translate(-294648854.000000 0)"
textLength="3519286.000000" font-size="1333333.000000" lengthAdjust="spacingAndGlyphs"
text-anchor="middle" opacity="0">Bat+</text>
<g class="stroked-text"><desc>Bat+</desc>
<path d="M148610141 77397258
L148467284 77444877
L148419665 77492496
L148372046 77587734
L148372046 77730591
L148419665 77825829
L148467284 77873448
L148562522 77921067
L148943474 77921067
L148943474 76921067
L148610141 76921067
L148514903 76968687
L148467284 77016306
L148419665 77111544
L148419665 77206782
L148467284 77302020
L148514903 77349639
L148610141 77397258
L148943474 77397258
" />
<path d="M147514903 77921067
L147514903 77397258
L147562522 77302020
L147657760 77254401
L147848236 77254401
L147943474 77302020
" />
<path d="M147514903 77873448
L147610141 77921067
L147848236 77921067
L147943474 77873448
L147991093 77778210
L147991093 77682972
L147943474 77587734
L147848236 77540115
L147610141 77540115
L147514903 77492496
" />
<path d="M147181569 77254401
L146800617 77254401
" />
<path d="M147038712 76921067
L147038712 77778210
L146991093 77873448
L146895855 77921067
L146800617 77921067
" />
<path d="M146467284 77540115
L145705379 77540115
" />
<path d="M146086331 77921067
L146086331 77159163
" />
</g><text x="153166427.000000" y="73114687.000000"
transform="scale(-1 1) translate(-306332854.000000 0)"
textLength="1571667.000000" font-size="933333.000000" lengthAdjust="spacingAndGlyphs"
text-anchor="middle" opacity="0">DIO</text>
<g class="stroked-text"><desc>DIO</desc>
<path d="M153883093 73081353
L153883093 72381353
L153716427 72381353
L153616427 72414687
L153549760 72481353
L153516427 72548020
L153483093 72681353
L153483093 72781353
L153516427 72914687
L153549760 72981353
L153616427 73048020
L153716427 73081353
L153883093 73081353
" />
<path d="M153183093 73081353
L153183093 72381353
" />
<path d="M152716427 72381353
L152583093 72381353
L152516427 72414687
L152449760 72481353
L152416427 72614687
L152416427 72848020
L152449760 72981353
L152516427 73048020
L152583093 73081353
L152716427 73081353
L152783093 73048020
L152849760 72981353
L152883093 72848020
L152883093 72614687
L152849760 72481353
L152783093 72414687
L152716427 72381353
" />
</g><text x="153166427.000000" y="75654687.000000"
transform="scale(-1 1) translate(-306332854.000000 0)"
textLength="1705000.000000" font-size="933333.000000" lengthAdjust="spacingAndGlyphs"
text-anchor="middle" opacity="0">RST</text>
<g class="stroked-text"><desc>RST</desc>
<path d="M153549760 75621353
L153783093 75288020
" />
<path d="M153949760 75621353
L153949760 74921353
L153683093 74921353
L153616427 74954687
L153583093 74988020
L153549760 75054687
L153549760 75154687
L153583093 75221353
L153616427 75254687
L153683093 75288020
L153949760 75288020
" />
<path d="M153283093 75588020
L153183093 75621353
L153016427 75621353
L152949760 75588020
L152916427 75554687
L152883093 75488020
L152883093 75421353
L152916427 75354687
L152949760 75321353
L153016427 75288020
L153149760 75254687
L153216427 75221353
L153249760 75188020
L153283093 75121353
L153283093 75054687
L153249760 74988020
L153216427 74954687
L153149760 74921353
L152983093 74921353
L152883093 74954687
" />
<path d="M152683093 74921353
L152283093 74921353
" />
<path d="M152483093 75621353
L152483093 74921353
" />
</g><g >
</g>
<g >
</g>
<g >
</g>
<g >
</g>
<g >
</g>
<g >
</g>
<g >
</g>
<g >
</g>
<g >
</g>
<g >
</g>
<g >
</g>
<g >
</g>
<g >
</g>
<g >
</g>
<g >
</g>
<g >
</g>
<g >
</g>
<g >
</g>
<g >
</g>
<g >
</g>
<g >
</g>
<g >
</g>
<g >
</g>
<g >
</g>
<g >
</g>
<g >
</g>
<g >
</g>
<g >
</g>
<g >
</g>
<g >
</g>
<g >
</g>
<g >
</g>
<g >
</g>
<g >
</g>
<g >
</g>
<g >
</g>
<g >
</g>
<g >
</g>
<g >
</g>
<g >
</g>
<g >
</g>
<g >
</g>
<g >
</g>
<g >
</g>
<g >
</g>
<g >
</g>
<g >
</g>
<g >
</g>
<g >
</g>
<g >
</g>
<g >
</g>
<g >
</g>
<g >
</g>
<g >
</g>
<g >
</g>
<g >
</g>
<g >
</g>
<g >
</g>
<g >
</g>
<g >
</g>
<g >
</g>
<g >
</g>
<g >
</g>
<g >
</g>
<g >
</g>
<g >
</g>
<g >
</g>
<g >
</g>
<g >
</g>
<g >
</g>
<g >
</g>
<g >
</g>
</g> 
</svg>
